<?xml version="1.0" encoding="utf-8" standalone="no"?>
<!DOCTYPE svg PUBLIC "-//W3C//DTD SVG 1.1//EN"
  "http://www.w3.org/Graphics/SVG/1.1/DTD/svg11.dtd">
<svg xmlns:xlink="http://www.w3.org/1999/xlink" width="720pt" height="216pt" viewBox="0 0 720 216" xmlns="http://www.w3.org/2000/svg" version="1.1">
 <metadata>
  <rdf:RDF xmlns:dc="http://purl.org/dc/elements/1.1/" xmlns:cc="http://creativecommons.org/ns#" xmlns:rdf="http://www.w3.org/1999/02/22-rdf-syntax-ns#">
   <cc:Work>
    <dc:type rdf:resource="http://purl.org/dc/dcmitype/StillImage"/>
    <dc:date>2025-04-04T14:33:47.980158</dc:date>
    <dc:format>image/svg+xml</dc:format>
    <dc:creator>
     <cc:Agent>
      <dc:title>Matplotlib v3.9.2, https://matplotlib.org/</dc:title>
     </cc:Agent>
    </dc:creator>
   </cc:Work>
  </rdf:RDF>
 </metadata>
 <defs>
  <style type="text/css">*{stroke-linejoin: round; stroke-linecap: butt}</style>
 </defs>
 <g id="figure_1">
  <g id="patch_1">
   <path d="M 0 216 
L 720 216 
L 720 0 
L 0 0 
z
" style="fill: #ffffff"/>
  </g>
  <g id="axes_1">
   <g id="patch_2">
    <path d="M 72.29 145.92751 
L 709.2 145.92751 
L 709.2 10.8 
L 72.29 10.8 
z
" style="fill: #ffffff"/>
   </g>
   <g id="patch_3">
    <path d="M 101.240455 145.92751 
L 107.524274 145.92751 
L 107.524274 145.92751 
L 101.240455 145.92751 
z
" clip-path="url(#p28b3cd7a9e)" style="fill: #1f77b4; stroke: #000000; stroke-linejoin: miter"/>
   </g>
   <g id="patch_4">
    <path d="M 105.728897 145.92751 
L 112.012717 145.92751 
L 112.012717 145.92751 
L 105.728897 145.92751 
z
" clip-path="url(#p28b3cd7a9e)" style="fill: #1f77b4; stroke: #000000; stroke-linejoin: miter"/>
   </g>
   <g id="patch_5">
    <path d="M 110.21734 145.92751 
L 116.501159 145.92751 
L 116.501159 145.92751 
L 110.21734 145.92751 
z
" clip-path="url(#p28b3cd7a9e)" style="fill: #1f77b4; stroke: #000000; stroke-linejoin: miter"/>
   </g>
   <g id="patch_6">
    <path d="M 114.705782 145.92751 
L 120.989602 145.92751 
L 120.989602 145.92751 
L 114.705782 145.92751 
z
" clip-path="url(#p28b3cd7a9e)" style="fill: #1f77b4; stroke: #000000; stroke-linejoin: miter"/>
   </g>
   <g id="patch_7">
    <path d="M 119.194225 145.92751 
L 125.478044 145.92751 
L 125.478044 145.92751 
L 119.194225 145.92751 
z
" clip-path="url(#p28b3cd7a9e)" style="fill: #1f77b4; stroke: #000000; stroke-linejoin: miter"/>
   </g>
   <g id="patch_8">
    <path d="M 123.682667 145.92751 
L 129.966487 145.92751 
L 129.966487 145.92751 
L 123.682667 145.92751 
z
" clip-path="url(#p28b3cd7a9e)" style="fill: #1f77b4; stroke: #000000; stroke-linejoin: miter"/>
   </g>
   <g id="patch_9">
    <path d="M 128.17111 145.92751 
L 134.45493 145.92751 
L 134.45493 145.92751 
L 128.17111 145.92751 
z
" clip-path="url(#p28b3cd7a9e)" style="fill: #1f77b4; stroke: #000000; stroke-linejoin: miter"/>
   </g>
   <g id="patch_10">
    <path d="M 132.659553 145.92751 
L 138.943372 145.92751 
L 138.943372 145.92751 
L 132.659553 145.92751 
z
" clip-path="url(#p28b3cd7a9e)" style="fill: #1f77b4; stroke: #000000; stroke-linejoin: miter"/>
   </g>
   <g id="patch_11">
    <path d="M 137.147995 145.92751 
L 143.431815 145.92751 
L 143.431815 145.92751 
L 137.147995 145.92751 
z
" clip-path="url(#p28b3cd7a9e)" style="fill: #1f77b4; stroke: #000000; stroke-linejoin: miter"/>
   </g>
   <g id="patch_12">
    <path d="M 141.636438 145.92751 
L 147.920257 145.92751 
L 147.920257 145.92751 
L 141.636438 145.92751 
z
" clip-path="url(#p28b3cd7a9e)" style="fill: #1f77b4; stroke: #000000; stroke-linejoin: miter"/>
   </g>
   <g id="patch_13">
    <path d="M 146.12488 145.92751 
L 152.4087 145.92751 
L 152.4087 145.92751 
L 146.12488 145.92751 
z
" clip-path="url(#p28b3cd7a9e)" style="fill: #1f77b4; stroke: #000000; stroke-linejoin: miter"/>
   </g>
   <g id="patch_14">
    <path d="M 150.613323 145.92751 
L 156.897142 145.92751 
L 156.897142 145.92751 
L 150.613323 145.92751 
z
" clip-path="url(#p28b3cd7a9e)" style="fill: #1f77b4; stroke: #000000; stroke-linejoin: miter"/>
   </g>
   <g id="patch_15">
    <path d="M 155.101765 145.92751 
L 161.385585 145.92751 
L 161.385585 145.92751 
L 155.101765 145.92751 
z
" clip-path="url(#p28b3cd7a9e)" style="fill: #1f77b4; stroke: #000000; stroke-linejoin: miter"/>
   </g>
   <g id="patch_16">
    <path d="M 159.590208 145.92751 
L 165.874027 145.92751 
L 165.874027 145.92751 
L 159.590208 145.92751 
z
" clip-path="url(#p28b3cd7a9e)" style="fill: #1f77b4; stroke: #000000; stroke-linejoin: miter"/>
   </g>
   <g id="patch_17">
    <path d="M 164.07865 145.92751 
L 170.36247 145.92751 
L 170.36247 145.92751 
L 164.07865 145.92751 
z
" clip-path="url(#p28b3cd7a9e)" style="fill: #1f77b4; stroke: #000000; stroke-linejoin: miter"/>
   </g>
   <g id="patch_18">
    <path d="M 168.567093 145.92751 
L 174.850913 145.92751 
L 174.850913 145.92751 
L 168.567093 145.92751 
z
" clip-path="url(#p28b3cd7a9e)" style="fill: #1f77b4; stroke: #000000; stroke-linejoin: miter"/>
   </g>
   <g id="patch_19">
    <path d="M 173.055536 145.92751 
L 179.339355 145.92751 
L 179.339355 145.92751 
L 173.055536 145.92751 
z
" clip-path="url(#p28b3cd7a9e)" style="fill: #1f77b4; stroke: #000000; stroke-linejoin: miter"/>
   </g>
   <g id="patch_20">
    <path d="M 177.543978 145.92751 
L 183.827798 145.92751 
L 183.827798 145.92751 
L 177.543978 145.92751 
z
" clip-path="url(#p28b3cd7a9e)" style="fill: #1f77b4; stroke: #000000; stroke-linejoin: miter"/>
   </g>
   <g id="patch_21">
    <path d="M 182.032421 145.92751 
L 188.31624 145.92751 
L 188.31624 145.92751 
L 182.032421 145.92751 
z
" clip-path="url(#p28b3cd7a9e)" style="fill: #1f77b4; stroke: #000000; stroke-linejoin: miter"/>
   </g>
   <g id="patch_22">
    <path d="M 186.520863 145.92751 
L 192.804683 145.92751 
L 192.804683 145.92751 
L 186.520863 145.92751 
z
" clip-path="url(#p28b3cd7a9e)" style="fill: #1f77b4; stroke: #000000; stroke-linejoin: miter"/>
   </g>
   <g id="patch_23">
    <path d="M 191.009306 145.92751 
L 197.293125 145.92751 
L 197.293125 145.92751 
L 191.009306 145.92751 
z
" clip-path="url(#p28b3cd7a9e)" style="fill: #1f77b4; stroke: #000000; stroke-linejoin: miter"/>
   </g>
   <g id="patch_24">
    <path d="M 195.497748 145.92751 
L 201.781568 145.92751 
L 201.781568 145.92751 
L 195.497748 145.92751 
z
" clip-path="url(#p28b3cd7a9e)" style="fill: #1f77b4; stroke: #000000; stroke-linejoin: miter"/>
   </g>
   <g id="patch_25">
    <path d="M 199.986191 145.92751 
L 206.270011 145.92751 
L 206.270011 145.92751 
L 199.986191 145.92751 
z
" clip-path="url(#p28b3cd7a9e)" style="fill: #1f77b4; stroke: #000000; stroke-linejoin: miter"/>
   </g>
   <g id="patch_26">
    <path d="M 204.474634 145.92751 
L 210.758453 145.92751 
L 210.758453 145.92751 
L 204.474634 145.92751 
z
" clip-path="url(#p28b3cd7a9e)" style="fill: #1f77b4; stroke: #000000; stroke-linejoin: miter"/>
   </g>
   <g id="patch_27">
    <path d="M 208.963076 145.92751 
L 215.246896 145.92751 
L 215.246896 145.92751 
L 208.963076 145.92751 
z
" clip-path="url(#p28b3cd7a9e)" style="fill: #1f77b4; stroke: #000000; stroke-linejoin: miter"/>
   </g>
   <g id="patch_28">
    <path d="M 213.451519 145.92751 
L 219.735338 145.92751 
L 219.735338 145.92751 
L 213.451519 145.92751 
z
" clip-path="url(#p28b3cd7a9e)" style="fill: #1f77b4; stroke: #000000; stroke-linejoin: miter"/>
   </g>
   <g id="patch_29">
    <path d="M 217.939961 145.92751 
L 224.223781 145.92751 
L 224.223781 145.92751 
L 217.939961 145.92751 
z
" clip-path="url(#p28b3cd7a9e)" style="fill: #1f77b4; stroke: #000000; stroke-linejoin: miter"/>
   </g>
   <g id="patch_30">
    <path d="M 222.428404 145.92751 
L 228.712223 145.92751 
L 228.712223 145.92751 
L 222.428404 145.92751 
z
" clip-path="url(#p28b3cd7a9e)" style="fill: #1f77b4; stroke: #000000; stroke-linejoin: miter"/>
   </g>
   <g id="patch_31">
    <path d="M 226.916846 145.92751 
L 233.200666 145.92751 
L 233.200666 145.92751 
L 226.916846 145.92751 
z
" clip-path="url(#p28b3cd7a9e)" style="fill: #1f77b4; stroke: #000000; stroke-linejoin: miter"/>
   </g>
   <g id="patch_32">
    <path d="M 231.405289 145.92751 
L 237.689109 145.92751 
L 237.689109 145.92751 
L 231.405289 145.92751 
z
" clip-path="url(#p28b3cd7a9e)" style="fill: #1f77b4; stroke: #000000; stroke-linejoin: miter"/>
   </g>
   <g id="patch_33">
    <path d="M 235.893732 145.92751 
L 242.177551 145.92751 
L 242.177551 145.92751 
L 235.893732 145.92751 
z
" clip-path="url(#p28b3cd7a9e)" style="fill: #1f77b4; stroke: #000000; stroke-linejoin: miter"/>
   </g>
   <g id="patch_34">
    <path d="M 240.382174 145.92751 
L 246.665994 145.92751 
L 246.665994 145.92751 
L 240.382174 145.92751 
z
" clip-path="url(#p28b3cd7a9e)" style="fill: #1f77b4; stroke: #000000; stroke-linejoin: miter"/>
   </g>
   <g id="patch_35">
    <path d="M 244.870617 145.92751 
L 251.154436 145.92751 
L 251.154436 145.92751 
L 244.870617 145.92751 
z
" clip-path="url(#p28b3cd7a9e)" style="fill: #1f77b4; stroke: #000000; stroke-linejoin: miter"/>
   </g>
   <g id="patch_36">
    <path d="M 249.359059 145.92751 
L 255.642879 145.92751 
L 255.642879 145.92751 
L 249.359059 145.92751 
z
" clip-path="url(#p28b3cd7a9e)" style="fill: #1f77b4; stroke: #000000; stroke-linejoin: miter"/>
   </g>
   <g id="patch_37">
    <path d="M 253.847502 145.92751 
L 260.131321 145.92751 
L 260.131321 145.92751 
L 253.847502 145.92751 
z
" clip-path="url(#p28b3cd7a9e)" style="fill: #1f77b4; stroke: #000000; stroke-linejoin: miter"/>
   </g>
   <g id="patch_38">
    <path d="M 258.335944 145.92751 
L 264.619764 145.92751 
L 264.619764 145.92751 
L 258.335944 145.92751 
z
" clip-path="url(#p28b3cd7a9e)" style="fill: #1f77b4; stroke: #000000; stroke-linejoin: miter"/>
   </g>
   <g id="patch_39">
    <path d="M 262.824387 145.92751 
L 269.108206 145.92751 
L 269.108206 145.92751 
L 262.824387 145.92751 
z
" clip-path="url(#p28b3cd7a9e)" style="fill: #1f77b4; stroke: #000000; stroke-linejoin: miter"/>
   </g>
   <g id="patch_40">
    <path d="M 267.312829 145.92751 
L 273.596649 145.92751 
L 273.596649 145.92751 
L 267.312829 145.92751 
z
" clip-path="url(#p28b3cd7a9e)" style="fill: #1f77b4; stroke: #000000; stroke-linejoin: miter"/>
   </g>
   <g id="patch_41">
    <path d="M 271.801272 145.92751 
L 278.085092 145.92751 
L 278.085092 145.92751 
L 271.801272 145.92751 
z
" clip-path="url(#p28b3cd7a9e)" style="fill: #1f77b4; stroke: #000000; stroke-linejoin: miter"/>
   </g>
   <g id="patch_42">
    <path d="M 276.289715 145.92751 
L 282.573534 145.92751 
L 282.573534 145.92751 
L 276.289715 145.92751 
z
" clip-path="url(#p28b3cd7a9e)" style="fill: #1f77b4; stroke: #000000; stroke-linejoin: miter"/>
   </g>
   <g id="patch_43">
    <path d="M 280.778157 145.92751 
L 287.061977 145.92751 
L 287.061977 145.92751 
L 280.778157 145.92751 
z
" clip-path="url(#p28b3cd7a9e)" style="fill: #1f77b4; stroke: #000000; stroke-linejoin: miter"/>
   </g>
   <g id="patch_44">
    <path d="M 285.2666 145.92751 
L 291.550419 145.92751 
L 291.550419 145.92751 
L 285.2666 145.92751 
z
" clip-path="url(#p28b3cd7a9e)" style="fill: #1f77b4; stroke: #000000; stroke-linejoin: miter"/>
   </g>
   <g id="patch_45">
    <path d="M 289.755042 145.92751 
L 296.038862 145.92751 
L 296.038862 145.92751 
L 289.755042 145.92751 
z
" clip-path="url(#p28b3cd7a9e)" style="fill: #1f77b4; stroke: #000000; stroke-linejoin: miter"/>
   </g>
   <g id="patch_46">
    <path d="M 294.243485 145.92751 
L 300.527304 145.92751 
L 300.527304 145.92751 
L 294.243485 145.92751 
z
" clip-path="url(#p28b3cd7a9e)" style="fill: #1f77b4; stroke: #000000; stroke-linejoin: miter"/>
   </g>
   <g id="patch_47">
    <path d="M 298.731927 145.92751 
L 305.015747 145.92751 
L 305.015747 145.92751 
L 298.731927 145.92751 
z
" clip-path="url(#p28b3cd7a9e)" style="fill: #1f77b4; stroke: #000000; stroke-linejoin: miter"/>
   </g>
   <g id="patch_48">
    <path d="M 303.22037 145.92751 
L 309.50419 145.92751 
L 309.50419 145.92751 
L 303.22037 145.92751 
z
" clip-path="url(#p28b3cd7a9e)" style="fill: #1f77b4; stroke: #000000; stroke-linejoin: miter"/>
   </g>
   <g id="patch_49">
    <path d="M 307.708813 145.92751 
L 313.992632 145.92751 
L 313.992632 145.92751 
L 307.708813 145.92751 
z
" clip-path="url(#p28b3cd7a9e)" style="fill: #1f77b4; stroke: #000000; stroke-linejoin: miter"/>
   </g>
   <g id="patch_50">
    <path d="M 312.197255 145.92751 
L 318.481075 145.92751 
L 318.481075 145.92751 
L 312.197255 145.92751 
z
" clip-path="url(#p28b3cd7a9e)" style="fill: #1f77b4; stroke: #000000; stroke-linejoin: miter"/>
   </g>
   <g id="patch_51">
    <path d="M 316.685698 145.92751 
L 322.969517 145.92751 
L 322.969517 145.92751 
L 316.685698 145.92751 
z
" clip-path="url(#p28b3cd7a9e)" style="fill: #1f77b4; stroke: #000000; stroke-linejoin: miter"/>
   </g>
   <g id="patch_52">
    <path d="M 321.17414 145.92751 
L 327.45796 145.92751 
L 327.45796 145.92751 
L 321.17414 145.92751 
z
" clip-path="url(#p28b3cd7a9e)" style="fill: #1f77b4; stroke: #000000; stroke-linejoin: miter"/>
   </g>
   <g id="patch_53">
    <path d="M 325.662583 145.92751 
L 331.946402 145.92751 
L 331.946402 145.92751 
L 325.662583 145.92751 
z
" clip-path="url(#p28b3cd7a9e)" style="fill: #1f77b4; stroke: #000000; stroke-linejoin: miter"/>
   </g>
   <g id="patch_54">
    <path d="M 330.151025 145.92751 
L 336.434845 145.92751 
L 336.434845 145.92751 
L 330.151025 145.92751 
z
" clip-path="url(#p28b3cd7a9e)" style="fill: #1f77b4; stroke: #000000; stroke-linejoin: miter"/>
   </g>
   <g id="patch_55">
    <path d="M 334.639468 145.92751 
L 340.923288 145.92751 
L 340.923288 145.92751 
L 334.639468 145.92751 
z
" clip-path="url(#p28b3cd7a9e)" style="fill: #1f77b4; stroke: #000000; stroke-linejoin: miter"/>
   </g>
   <g id="patch_56">
    <path d="M 339.127911 145.92751 
L 345.41173 145.92751 
L 345.41173 145.92751 
L 339.127911 145.92751 
z
" clip-path="url(#p28b3cd7a9e)" style="fill: #1f77b4; stroke: #000000; stroke-linejoin: miter"/>
   </g>
   <g id="patch_57">
    <path d="M 343.616353 145.92751 
L 349.900173 145.92751 
L 349.900173 145.92751 
L 343.616353 145.92751 
z
" clip-path="url(#p28b3cd7a9e)" style="fill: #1f77b4; stroke: #000000; stroke-linejoin: miter"/>
   </g>
   <g id="patch_58">
    <path d="M 348.104796 145.92751 
L 354.388615 145.92751 
L 354.388615 145.92751 
L 348.104796 145.92751 
z
" clip-path="url(#p28b3cd7a9e)" style="fill: #1f77b4; stroke: #000000; stroke-linejoin: miter"/>
   </g>
   <g id="patch_59">
    <path d="M 352.593238 145.92751 
L 358.877058 145.92751 
L 358.877058 145.92751 
L 352.593238 145.92751 
z
" clip-path="url(#p28b3cd7a9e)" style="fill: #1f77b4; stroke: #000000; stroke-linejoin: miter"/>
   </g>
   <g id="patch_60">
    <path d="M 357.081681 145.92751 
L 363.3655 145.92751 
L 363.3655 145.92751 
L 357.081681 145.92751 
z
" clip-path="url(#p28b3cd7a9e)" style="fill: #1f77b4; stroke: #000000; stroke-linejoin: miter"/>
   </g>
   <g id="patch_61">
    <path d="M 361.570123 145.92751 
L 367.853943 145.92751 
L 367.853943 145.92751 
L 361.570123 145.92751 
z
" clip-path="url(#p28b3cd7a9e)" style="fill: #1f77b4; stroke: #000000; stroke-linejoin: miter"/>
   </g>
   <g id="patch_62">
    <path d="M 366.058566 145.92751 
L 372.342385 145.92751 
L 372.342385 145.92751 
L 366.058566 145.92751 
z
" clip-path="url(#p28b3cd7a9e)" style="fill: #1f77b4; stroke: #000000; stroke-linejoin: miter"/>
   </g>
   <g id="patch_63">
    <path d="M 370.547008 145.92751 
L 376.830828 145.92751 
L 376.830828 145.92751 
L 370.547008 145.92751 
z
" clip-path="url(#p28b3cd7a9e)" style="fill: #1f77b4; stroke: #000000; stroke-linejoin: miter"/>
   </g>
   <g id="patch_64">
    <path d="M 375.035451 145.92751 
L 381.319271 145.92751 
L 381.319271 145.92751 
L 375.035451 145.92751 
z
" clip-path="url(#p28b3cd7a9e)" style="fill: #1f77b4; stroke: #000000; stroke-linejoin: miter"/>
   </g>
   <g id="patch_65">
    <path d="M 379.523894 145.92751 
L 385.807713 145.92751 
L 385.807713 145.92751 
L 379.523894 145.92751 
z
" clip-path="url(#p28b3cd7a9e)" style="fill: #1f77b4; stroke: #000000; stroke-linejoin: miter"/>
   </g>
   <g id="patch_66">
    <path d="M 384.012336 145.92751 
L 390.296156 145.92751 
L 390.296156 145.92751 
L 384.012336 145.92751 
z
" clip-path="url(#p28b3cd7a9e)" style="fill: #1f77b4; stroke: #000000; stroke-linejoin: miter"/>
   </g>
   <g id="patch_67">
    <path d="M 388.500779 145.92751 
L 394.784598 145.92751 
L 394.784598 145.92751 
L 388.500779 145.92751 
z
" clip-path="url(#p28b3cd7a9e)" style="fill: #1f77b4; stroke: #000000; stroke-linejoin: miter"/>
   </g>
   <g id="patch_68">
    <path d="M 392.989221 145.92751 
L 399.273041 145.92751 
L 399.273041 145.92751 
L 392.989221 145.92751 
z
" clip-path="url(#p28b3cd7a9e)" style="fill: #1f77b4; stroke: #000000; stroke-linejoin: miter"/>
   </g>
   <g id="patch_69">
    <path d="M 397.477664 145.92751 
L 403.761483 145.92751 
L 403.761483 145.92751 
L 397.477664 145.92751 
z
" clip-path="url(#p28b3cd7a9e)" style="fill: #1f77b4; stroke: #000000; stroke-linejoin: miter"/>
   </g>
   <g id="patch_70">
    <path d="M 401.966106 145.92751 
L 408.249926 145.92751 
L 408.249926 145.92751 
L 401.966106 145.92751 
z
" clip-path="url(#p28b3cd7a9e)" style="fill: #1f77b4; stroke: #000000; stroke-linejoin: miter"/>
   </g>
   <g id="patch_71">
    <path d="M 406.454549 145.92751 
L 412.738369 145.92751 
L 412.738369 145.92751 
L 406.454549 145.92751 
z
" clip-path="url(#p28b3cd7a9e)" style="fill: #1f77b4; stroke: #000000; stroke-linejoin: miter"/>
   </g>
   <g id="patch_72">
    <path d="M 410.942992 145.92751 
L 417.226811 145.92751 
L 417.226811 145.92751 
L 410.942992 145.92751 
z
" clip-path="url(#p28b3cd7a9e)" style="fill: #1f77b4; stroke: #000000; stroke-linejoin: miter"/>
   </g>
   <g id="patch_73">
    <path d="M 415.431434 145.92751 
L 421.715254 145.92751 
L 421.715254 145.92751 
L 415.431434 145.92751 
z
" clip-path="url(#p28b3cd7a9e)" style="fill: #1f77b4; stroke: #000000; stroke-linejoin: miter"/>
   </g>
   <g id="patch_74">
    <path d="M 419.919877 145.92751 
L 426.203696 145.92751 
L 426.203696 145.92751 
L 419.919877 145.92751 
z
" clip-path="url(#p28b3cd7a9e)" style="fill: #1f77b4; stroke: #000000; stroke-linejoin: miter"/>
   </g>
   <g id="patch_75">
    <path d="M 424.408319 145.92751 
L 430.692139 145.92751 
L 430.692139 145.92751 
L 424.408319 145.92751 
z
" clip-path="url(#p28b3cd7a9e)" style="fill: #1f77b4; stroke: #000000; stroke-linejoin: miter"/>
   </g>
   <g id="patch_76">
    <path d="M 428.896762 145.92751 
L 435.180581 145.92751 
L 435.180581 145.92751 
L 428.896762 145.92751 
z
" clip-path="url(#p28b3cd7a9e)" style="fill: #1f77b4; stroke: #000000; stroke-linejoin: miter"/>
   </g>
   <g id="patch_77">
    <path d="M 433.385204 145.92751 
L 439.669024 145.92751 
L 439.669024 145.92751 
L 433.385204 145.92751 
z
" clip-path="url(#p28b3cd7a9e)" style="fill: #1f77b4; stroke: #000000; stroke-linejoin: miter"/>
   </g>
   <g id="patch_78">
    <path d="M 437.873647 145.92751 
L 444.157467 145.92751 
L 444.157467 145.92751 
L 437.873647 145.92751 
z
" clip-path="url(#p28b3cd7a9e)" style="fill: #1f77b4; stroke: #000000; stroke-linejoin: miter"/>
   </g>
   <g id="patch_79">
    <path d="M 442.362089 145.92751 
L 448.645909 145.92751 
L 448.645909 145.92751 
L 442.362089 145.92751 
z
" clip-path="url(#p28b3cd7a9e)" style="fill: #1f77b4; stroke: #000000; stroke-linejoin: miter"/>
   </g>
   <g id="patch_80">
    <path d="M 446.850532 145.92751 
L 453.134352 145.92751 
L 453.134352 145.92751 
L 446.850532 145.92751 
z
" clip-path="url(#p28b3cd7a9e)" style="fill: #1f77b4; stroke: #000000; stroke-linejoin: miter"/>
   </g>
   <g id="patch_81">
    <path d="M 451.338975 145.92751 
L 457.622794 145.92751 
L 457.622794 145.92751 
L 451.338975 145.92751 
z
" clip-path="url(#p28b3cd7a9e)" style="fill: #1f77b4; stroke: #000000; stroke-linejoin: miter"/>
   </g>
   <g id="patch_82">
    <path d="M 455.827417 145.92751 
L 462.111237 145.92751 
L 462.111237 145.92751 
L 455.827417 145.92751 
z
" clip-path="url(#p28b3cd7a9e)" style="fill: #1f77b4; stroke: #000000; stroke-linejoin: miter"/>
   </g>
   <g id="patch_83">
    <path d="M 460.31586 145.92751 
L 466.599679 145.92751 
L 466.599679 145.92751 
L 460.31586 145.92751 
z
" clip-path="url(#p28b3cd7a9e)" style="fill: #1f77b4; stroke: #000000; stroke-linejoin: miter"/>
   </g>
   <g id="patch_84">
    <path d="M 464.804302 145.92751 
L 471.088122 145.92751 
L 471.088122 145.92751 
L 464.804302 145.92751 
z
" clip-path="url(#p28b3cd7a9e)" style="fill: #1f77b4; stroke: #000000; stroke-linejoin: miter"/>
   </g>
   <g id="patch_85">
    <path d="M 469.292745 145.92751 
L 475.576564 145.92751 
L 475.576564 145.92751 
L 469.292745 145.92751 
z
" clip-path="url(#p28b3cd7a9e)" style="fill: #1f77b4; stroke: #000000; stroke-linejoin: miter"/>
   </g>
   <g id="patch_86">
    <path d="M 473.781187 145.92751 
L 480.065007 145.92751 
L 480.065007 145.92751 
L 473.781187 145.92751 
z
" clip-path="url(#p28b3cd7a9e)" style="fill: #1f77b4; stroke: #000000; stroke-linejoin: miter"/>
   </g>
   <g id="patch_87">
    <path d="M 478.26963 145.92751 
L 484.55345 145.92751 
L 484.55345 145.92751 
L 478.26963 145.92751 
z
" clip-path="url(#p28b3cd7a9e)" style="fill: #1f77b4; stroke: #000000; stroke-linejoin: miter"/>
   </g>
   <g id="patch_88">
    <path d="M 482.758073 145.92751 
L 489.041892 145.92751 
L 489.041892 145.92751 
L 482.758073 145.92751 
z
" clip-path="url(#p28b3cd7a9e)" style="fill: #1f77b4; stroke: #000000; stroke-linejoin: miter"/>
   </g>
   <g id="patch_89">
    <path d="M 487.246515 145.92751 
L 493.530335 145.92751 
L 493.530335 145.92751 
L 487.246515 145.92751 
z
" clip-path="url(#p28b3cd7a9e)" style="fill: #1f77b4; stroke: #000000; stroke-linejoin: miter"/>
   </g>
   <g id="patch_90">
    <path d="M 491.734958 145.92751 
L 498.018777 145.92751 
L 498.018777 145.92751 
L 491.734958 145.92751 
z
" clip-path="url(#p28b3cd7a9e)" style="fill: #1f77b4; stroke: #000000; stroke-linejoin: miter"/>
   </g>
   <g id="patch_91">
    <path d="M 496.2234 145.92751 
L 502.50722 145.92751 
L 502.50722 145.92751 
L 496.2234 145.92751 
z
" clip-path="url(#p28b3cd7a9e)" style="fill: #1f77b4; stroke: #000000; stroke-linejoin: miter"/>
   </g>
   <g id="patch_92">
    <path d="M 500.711843 145.92751 
L 506.995662 145.92751 
L 506.995662 145.92751 
L 500.711843 145.92751 
z
" clip-path="url(#p28b3cd7a9e)" style="fill: #1f77b4; stroke: #000000; stroke-linejoin: miter"/>
   </g>
   <g id="patch_93">
    <path d="M 505.200285 145.92751 
L 511.484105 145.92751 
L 511.484105 145.92751 
L 505.200285 145.92751 
z
" clip-path="url(#p28b3cd7a9e)" style="fill: #1f77b4; stroke: #000000; stroke-linejoin: miter"/>
   </g>
   <g id="patch_94">
    <path d="M 509.688728 145.92751 
L 515.972548 145.92751 
L 515.972548 145.92751 
L 509.688728 145.92751 
z
" clip-path="url(#p28b3cd7a9e)" style="fill: #1f77b4; stroke: #000000; stroke-linejoin: miter"/>
   </g>
   <g id="patch_95">
    <path d="M 514.177171 145.92751 
L 520.46099 145.92751 
L 520.46099 145.92751 
L 514.177171 145.92751 
z
" clip-path="url(#p28b3cd7a9e)" style="fill: #1f77b4; stroke: #000000; stroke-linejoin: miter"/>
   </g>
   <g id="patch_96">
    <path d="M 518.665613 145.92751 
L 524.949433 145.92751 
L 524.949433 145.92751 
L 518.665613 145.92751 
z
" clip-path="url(#p28b3cd7a9e)" style="fill: #1f77b4; stroke: #000000; stroke-linejoin: miter"/>
   </g>
   <g id="patch_97">
    <path d="M 523.154056 145.92751 
L 529.437875 145.92751 
L 529.437875 145.92751 
L 523.154056 145.92751 
z
" clip-path="url(#p28b3cd7a9e)" style="fill: #1f77b4; stroke: #000000; stroke-linejoin: miter"/>
   </g>
   <g id="patch_98">
    <path d="M 527.642498 145.92751 
L 533.926318 145.92751 
L 533.926318 145.92751 
L 527.642498 145.92751 
z
" clip-path="url(#p28b3cd7a9e)" style="fill: #1f77b4; stroke: #000000; stroke-linejoin: miter"/>
   </g>
   <g id="patch_99">
    <path d="M 532.130941 145.92751 
L 538.41476 145.92751 
L 538.41476 145.92751 
L 532.130941 145.92751 
z
" clip-path="url(#p28b3cd7a9e)" style="fill: #1f77b4; stroke: #000000; stroke-linejoin: miter"/>
   </g>
   <g id="patch_100">
    <path d="M 536.619383 145.92751 
L 542.903203 145.92751 
L 542.903203 145.92751 
L 536.619383 145.92751 
z
" clip-path="url(#p28b3cd7a9e)" style="fill: #1f77b4; stroke: #000000; stroke-linejoin: miter"/>
   </g>
   <g id="patch_101">
    <path d="M 541.107826 145.92751 
L 547.391646 145.92751 
L 547.391646 145.92751 
L 541.107826 145.92751 
z
" clip-path="url(#p28b3cd7a9e)" style="fill: #1f77b4; stroke: #000000; stroke-linejoin: miter"/>
   </g>
   <g id="patch_102">
    <path d="M 545.596268 145.92751 
L 551.880088 145.92751 
L 551.880088 145.92751 
L 545.596268 145.92751 
z
" clip-path="url(#p28b3cd7a9e)" style="fill: #1f77b4; stroke: #000000; stroke-linejoin: miter"/>
   </g>
   <g id="patch_103">
    <path d="M 550.084711 145.92751 
L 556.368531 145.92751 
L 556.368531 145.92751 
L 550.084711 145.92751 
z
" clip-path="url(#p28b3cd7a9e)" style="fill: #1f77b4; stroke: #000000; stroke-linejoin: miter"/>
   </g>
   <g id="patch_104">
    <path d="M 554.573154 145.92751 
L 560.856973 145.92751 
L 560.856973 145.92751 
L 554.573154 145.92751 
z
" clip-path="url(#p28b3cd7a9e)" style="fill: #1f77b4; stroke: #000000; stroke-linejoin: miter"/>
   </g>
   <g id="patch_105">
    <path d="M 559.061596 145.92751 
L 565.345416 145.92751 
L 565.345416 145.92751 
L 559.061596 145.92751 
z
" clip-path="url(#p28b3cd7a9e)" style="fill: #1f77b4; stroke: #000000; stroke-linejoin: miter"/>
   </g>
   <g id="patch_106">
    <path d="M 563.550039 145.92751 
L 569.833858 145.92751 
L 569.833858 145.92751 
L 563.550039 145.92751 
z
" clip-path="url(#p28b3cd7a9e)" style="fill: #1f77b4; stroke: #000000; stroke-linejoin: miter"/>
   </g>
   <g id="patch_107">
    <path d="M 568.038481 145.92751 
L 574.322301 145.92751 
L 574.322301 145.92751 
L 568.038481 145.92751 
z
" clip-path="url(#p28b3cd7a9e)" style="fill: #1f77b4; stroke: #000000; stroke-linejoin: miter"/>
   </g>
   <g id="patch_108">
    <path d="M 572.526924 145.92751 
L 578.810743 145.92751 
L 578.810743 145.92751 
L 572.526924 145.92751 
z
" clip-path="url(#p28b3cd7a9e)" style="fill: #1f77b4; stroke: #000000; stroke-linejoin: miter"/>
   </g>
   <g id="patch_109">
    <path d="M 577.015366 145.92751 
L 583.299186 145.92751 
L 583.299186 145.92751 
L 577.015366 145.92751 
z
" clip-path="url(#p28b3cd7a9e)" style="fill: #1f77b4; stroke: #000000; stroke-linejoin: miter"/>
   </g>
   <g id="patch_110">
    <path d="M 581.503809 145.92751 
L 587.787629 145.92751 
L 587.787629 145.92751 
L 581.503809 145.92751 
z
" clip-path="url(#p28b3cd7a9e)" style="fill: #1f77b4; stroke: #000000; stroke-linejoin: miter"/>
   </g>
   <g id="patch_111">
    <path d="M 585.992252 145.92751 
L 592.276071 145.92751 
L 592.276071 145.92751 
L 585.992252 145.92751 
z
" clip-path="url(#p28b3cd7a9e)" style="fill: #1f77b4; stroke: #000000; stroke-linejoin: miter"/>
   </g>
   <g id="patch_112">
    <path d="M 590.480694 145.92751 
L 596.764514 145.92751 
L 596.764514 145.92751 
L 590.480694 145.92751 
z
" clip-path="url(#p28b3cd7a9e)" style="fill: #1f77b4; stroke: #000000; stroke-linejoin: miter"/>
   </g>
   <g id="patch_113">
    <path d="M 594.969137 145.92751 
L 601.252956 145.92751 
L 601.252956 145.92751 
L 594.969137 145.92751 
z
" clip-path="url(#p28b3cd7a9e)" style="fill: #1f77b4; stroke: #000000; stroke-linejoin: miter"/>
   </g>
   <g id="patch_114">
    <path d="M 599.457579 145.92751 
L 605.741399 145.92751 
L 605.741399 145.92751 
L 599.457579 145.92751 
z
" clip-path="url(#p28b3cd7a9e)" style="fill: #1f77b4; stroke: #000000; stroke-linejoin: miter"/>
   </g>
   <g id="patch_115">
    <path d="M 603.946022 145.92751 
L 610.229841 145.92751 
L 610.229841 145.92751 
L 603.946022 145.92751 
z
" clip-path="url(#p28b3cd7a9e)" style="fill: #1f77b4; stroke: #000000; stroke-linejoin: miter"/>
   </g>
   <g id="patch_116">
    <path d="M 608.434464 145.92751 
L 614.718284 145.92751 
L 614.718284 145.92751 
L 608.434464 145.92751 
z
" clip-path="url(#p28b3cd7a9e)" style="fill: #1f77b4; stroke: #000000; stroke-linejoin: miter"/>
   </g>
   <g id="patch_117">
    <path d="M 612.922907 145.92751 
L 619.206727 145.92751 
L 619.206727 145.92751 
L 612.922907 145.92751 
z
" clip-path="url(#p28b3cd7a9e)" style="fill: #1f77b4; stroke: #000000; stroke-linejoin: miter"/>
   </g>
   <g id="patch_118">
    <path d="M 617.41135 145.92751 
L 623.695169 145.92751 
L 623.695169 145.92751 
L 617.41135 145.92751 
z
" clip-path="url(#p28b3cd7a9e)" style="fill: #1f77b4; stroke: #000000; stroke-linejoin: miter"/>
   </g>
   <g id="patch_119">
    <path d="M 621.899792 145.92751 
L 628.183612 145.92751 
L 628.183612 145.92751 
L 621.899792 145.92751 
z
" clip-path="url(#p28b3cd7a9e)" style="fill: #1f77b4; stroke: #000000; stroke-linejoin: miter"/>
   </g>
   <g id="patch_120">
    <path d="M 626.388235 145.92751 
L 632.672054 145.92751 
L 632.672054 145.92751 
L 626.388235 145.92751 
z
" clip-path="url(#p28b3cd7a9e)" style="fill: #1f77b4; stroke: #000000; stroke-linejoin: miter"/>
   </g>
   <g id="patch_121">
    <path d="M 630.876677 145.92751 
L 637.160497 145.92751 
L 637.160497 145.92751 
L 630.876677 145.92751 
z
" clip-path="url(#p28b3cd7a9e)" style="fill: #1f77b4; stroke: #000000; stroke-linejoin: miter"/>
   </g>
   <g id="patch_122">
    <path d="M 635.36512 145.92751 
L 641.648939 145.92751 
L 641.648939 145.92751 
L 635.36512 145.92751 
z
" clip-path="url(#p28b3cd7a9e)" style="fill: #1f77b4; stroke: #000000; stroke-linejoin: miter"/>
   </g>
   <g id="patch_123">
    <path d="M 639.853562 145.92751 
L 646.137382 145.92751 
L 646.137382 145.92751 
L 639.853562 145.92751 
z
" clip-path="url(#p28b3cd7a9e)" style="fill: #1f77b4; stroke: #000000; stroke-linejoin: miter"/>
   </g>
   <g id="patch_124">
    <path d="M 644.342005 145.92751 
L 650.625825 145.92751 
L 650.625825 145.92751 
L 644.342005 145.92751 
z
" clip-path="url(#p28b3cd7a9e)" style="fill: #1f77b4; stroke: #000000; stroke-linejoin: miter"/>
   </g>
   <g id="patch_125">
    <path d="M 648.830447 145.92751 
L 655.114267 145.92751 
L 655.114267 145.92751 
L 648.830447 145.92751 
z
" clip-path="url(#p28b3cd7a9e)" style="fill: #1f77b4; stroke: #000000; stroke-linejoin: miter"/>
   </g>
   <g id="patch_126">
    <path d="M 653.31889 145.92751 
L 659.60271 145.92751 
L 659.60271 145.92751 
L 653.31889 145.92751 
z
" clip-path="url(#p28b3cd7a9e)" style="fill: #1f77b4; stroke: #000000; stroke-linejoin: miter"/>
   </g>
   <g id="patch_127">
    <path d="M 657.807333 145.92751 
L 664.091152 145.92751 
L 664.091152 145.92751 
L 657.807333 145.92751 
z
" clip-path="url(#p28b3cd7a9e)" style="fill: #1f77b4; stroke: #000000; stroke-linejoin: miter"/>
   </g>
   <g id="patch_128">
    <path d="M 662.295775 145.92751 
L 668.579595 145.92751 
L 668.579595 145.92751 
L 662.295775 145.92751 
z
" clip-path="url(#p28b3cd7a9e)" style="fill: #1f77b4; stroke: #000000; stroke-linejoin: miter"/>
   </g>
   <g id="patch_129">
    <path d="M 666.784218 145.92751 
L 673.068037 145.92751 
L 673.068037 145.92751 
L 666.784218 145.92751 
z
" clip-path="url(#p28b3cd7a9e)" style="fill: #1f77b4; stroke: #000000; stroke-linejoin: miter"/>
   </g>
   <g id="patch_130">
    <path d="M 671.27266 145.92751 
L 677.55648 145.92751 
L 677.55648 145.92751 
L 671.27266 145.92751 
z
" clip-path="url(#p28b3cd7a9e)" style="fill: #1f77b4; stroke: #000000; stroke-linejoin: miter"/>
   </g>
   <g id="patch_131">
    <path d="M 673.965726 145.92751 
L 680.249545 145.92751 
L 680.249545 145.92751 
L 673.965726 145.92751 
z
" clip-path="url(#p28b3cd7a9e)" style="fill: #1f77b4; stroke: #000000; stroke-linejoin: miter"/>
   </g>
   <g id="matplotlib.axis_1">
    <g id="xtick_1">
     <g id="line2d_1">
      <path d="M 129.517643 145.92751 
L 129.517643 10.8 
" clip-path="url(#p28b3cd7a9e)" style="fill: none; stroke: #b0b0b0; stroke-width: 0.8; stroke-linecap: square"/>
     </g>
     <g id="line2d_2">
      <defs>
       <path id="m0a91af7236" d="M 0 0 
L 0 3.5 
" style="stroke: #000000; stroke-width: 0.8"/>
      </defs>
      <g>
       <use xlink:href="#m0a91af7236" x="129.517643" y="145.92751" style="stroke: #000000; stroke-width: 0.8"/>
      </g>
     </g>
     <g id="text_1">
      <!-- −300 -->
      <g transform="translate(104.446288 182.681679) rotate(-45) scale(0.12 -0.12)">
       <defs>
        <path id="DejaVuSans-2212" d="M 678 2272 
L 4684 2272 
L 4684 1741 
L 678 1741 
L 678 2272 
z
" transform="scale(0.015625)"/>
        <path id="DejaVuSans-33" d="M 2597 2516 
Q 3050 2419 3304 2112 
Q 3559 1806 3559 1356 
Q 3559 666 3084 287 
Q 2609 -91 1734 -91 
Q 1441 -91 1130 -33 
Q 819 25 488 141 
L 488 750 
Q 750 597 1062 519 
Q 1375 441 1716 441 
Q 2309 441 2620 675 
Q 2931 909 2931 1356 
Q 2931 1769 2642 2001 
Q 2353 2234 1838 2234 
L 1294 2234 
L 1294 2753 
L 1863 2753 
Q 2328 2753 2575 2939 
Q 2822 3125 2822 3475 
Q 2822 3834 2567 4026 
Q 2313 4219 1838 4219 
Q 1578 4219 1281 4162 
Q 984 4106 628 3988 
L 628 4550 
Q 988 4650 1302 4700 
Q 1616 4750 1894 4750 
Q 2613 4750 3031 4423 
Q 3450 4097 3450 3541 
Q 3450 3153 3228 2886 
Q 3006 2619 2597 2516 
z
" transform="scale(0.015625)"/>
        <path id="DejaVuSans-30" d="M 2034 4250 
Q 1547 4250 1301 3770 
Q 1056 3291 1056 2328 
Q 1056 1369 1301 889 
Q 1547 409 2034 409 
Q 2525 409 2770 889 
Q 3016 1369 3016 2328 
Q 3016 3291 2770 3770 
Q 2525 4250 2034 4250 
z
M 2034 4750 
Q 2819 4750 3233 4129 
Q 3647 3509 3647 2328 
Q 3647 1150 3233 529 
Q 2819 -91 2034 -91 
Q 1250 -91 836 529 
Q 422 1150 422 2328 
Q 422 3509 836 4129 
Q 1250 4750 2034 4750 
z
" transform="scale(0.015625)"/>
       </defs>
       <use xlink:href="#DejaVuSans-2212"/>
       <use xlink:href="#DejaVuSans-33" x="83.789062"/>
       <use xlink:href="#DejaVuSans-30" x="147.412109"/>
       <use xlink:href="#DejaVuSans-30" x="211.035156"/>
      </g>
     </g>
    </g>
    <g id="xtick_2">
     <g id="line2d_3">
      <path d="M 219.286494 145.92751 
L 219.286494 10.8 
" clip-path="url(#p28b3cd7a9e)" style="fill: none; stroke: #b0b0b0; stroke-width: 0.8; stroke-linecap: square"/>
     </g>
     <g id="line2d_4">
      <g>
       <use xlink:href="#m0a91af7236" x="219.286494" y="145.92751" style="stroke: #000000; stroke-width: 0.8"/>
      </g>
     </g>
     <g id="text_2">
      <!-- −200 -->
      <g transform="translate(194.215139 182.681679) rotate(-45) scale(0.12 -0.12)">
       <defs>
        <path id="DejaVuSans-32" d="M 1228 531 
L 3431 531 
L 3431 0 
L 469 0 
L 469 531 
Q 828 903 1448 1529 
Q 2069 2156 2228 2338 
Q 2531 2678 2651 2914 
Q 2772 3150 2772 3378 
Q 2772 3750 2511 3984 
Q 2250 4219 1831 4219 
Q 1534 4219 1204 4116 
Q 875 4013 500 3803 
L 500 4441 
Q 881 4594 1212 4672 
Q 1544 4750 1819 4750 
Q 2544 4750 2975 4387 
Q 3406 4025 3406 3419 
Q 3406 3131 3298 2873 
Q 3191 2616 2906 2266 
Q 2828 2175 2409 1742 
Q 1991 1309 1228 531 
z
" transform="scale(0.015625)"/>
       </defs>
       <use xlink:href="#DejaVuSans-2212"/>
       <use xlink:href="#DejaVuSans-32" x="83.789062"/>
       <use xlink:href="#DejaVuSans-30" x="147.412109"/>
       <use xlink:href="#DejaVuSans-30" x="211.035156"/>
      </g>
     </g>
    </g>
    <g id="xtick_3">
     <g id="line2d_5">
      <path d="M 309.055345 145.92751 
L 309.055345 10.8 
" clip-path="url(#p28b3cd7a9e)" style="fill: none; stroke: #b0b0b0; stroke-width: 0.8; stroke-linecap: square"/>
     </g>
     <g id="line2d_6">
      <g>
       <use xlink:href="#m0a91af7236" x="309.055345" y="145.92751" style="stroke: #000000; stroke-width: 0.8"/>
      </g>
     </g>
     <g id="text_3">
      <!-- −100 -->
      <g transform="translate(283.983991 182.681679) rotate(-45) scale(0.12 -0.12)">
       <defs>
        <path id="DejaVuSans-31" d="M 794 531 
L 1825 531 
L 1825 4091 
L 703 3866 
L 703 4441 
L 1819 4666 
L 2450 4666 
L 2450 531 
L 3481 531 
L 3481 0 
L 794 0 
L 794 531 
z
" transform="scale(0.015625)"/>
       </defs>
       <use xlink:href="#DejaVuSans-2212"/>
       <use xlink:href="#DejaVuSans-31" x="83.789062"/>
       <use xlink:href="#DejaVuSans-30" x="147.412109"/>
       <use xlink:href="#DejaVuSans-30" x="211.035156"/>
      </g>
     </g>
    </g>
    <g id="xtick_4">
     <g id="line2d_7">
      <path d="M 398.824197 145.92751 
L 398.824197 10.8 
" clip-path="url(#p28b3cd7a9e)" style="fill: none; stroke: #b0b0b0; stroke-width: 0.8; stroke-linecap: square"/>
     </g>
     <g id="line2d_8">
      <g>
       <use xlink:href="#m0a91af7236" x="398.824197" y="145.92751" style="stroke: #000000; stroke-width: 0.8"/>
      </g>
     </g>
     <g id="text_4">
      <!-- 0 -->
      <g transform="translate(391.660763 164.773758) rotate(-45) scale(0.12 -0.12)">
       <use xlink:href="#DejaVuSans-30"/>
      </g>
     </g>
    </g>
    <g id="xtick_5">
     <g id="line2d_9">
      <path d="M 488.593048 145.92751 
L 488.593048 10.8 
" clip-path="url(#p28b3cd7a9e)" style="fill: none; stroke: #b0b0b0; stroke-width: 0.8; stroke-linecap: square"/>
     </g>
     <g id="line2d_10">
      <g>
       <use xlink:href="#m0a91af7236" x="488.593048" y="145.92751" style="stroke: #000000; stroke-width: 0.8"/>
      </g>
     </g>
     <g id="text_5">
      <!-- 100 -->
      <g transform="translate(470.632094 175.571279) rotate(-45) scale(0.12 -0.12)">
       <use xlink:href="#DejaVuSans-31"/>
       <use xlink:href="#DejaVuSans-30" x="63.623047"/>
       <use xlink:href="#DejaVuSans-30" x="127.246094"/>
      </g>
     </g>
    </g>
    <g id="xtick_6">
     <g id="line2d_11">
      <path d="M 578.361899 145.92751 
L 578.361899 10.8 
" clip-path="url(#p28b3cd7a9e)" style="fill: none; stroke: #b0b0b0; stroke-width: 0.8; stroke-linecap: square"/>
     </g>
     <g id="line2d_12">
      <g>
       <use xlink:href="#m0a91af7236" x="578.361899" y="145.92751" style="stroke: #000000; stroke-width: 0.8"/>
      </g>
     </g>
     <g id="text_6">
      <!-- 200 -->
      <g transform="translate(560.400945 175.571279) rotate(-45) scale(0.12 -0.12)">
       <use xlink:href="#DejaVuSans-32"/>
       <use xlink:href="#DejaVuSans-30" x="63.623047"/>
       <use xlink:href="#DejaVuSans-30" x="127.246094"/>
      </g>
     </g>
    </g>
    <g id="xtick_7">
     <g id="line2d_13">
      <path d="M 668.130751 145.92751 
L 668.130751 10.8 
" clip-path="url(#p28b3cd7a9e)" style="fill: none; stroke: #b0b0b0; stroke-width: 0.8; stroke-linecap: square"/>
     </g>
     <g id="line2d_14">
      <g>
       <use xlink:href="#m0a91af7236" x="668.130751" y="145.92751" style="stroke: #000000; stroke-width: 0.8"/>
      </g>
     </g>
     <g id="text_7">
      <!-- 300 -->
      <g transform="translate(650.169796 175.571279) rotate(-45) scale(0.12 -0.12)">
       <use xlink:href="#DejaVuSans-33"/>
       <use xlink:href="#DejaVuSans-30" x="63.623047"/>
       <use xlink:href="#DejaVuSans-30" x="127.246094"/>
      </g>
     </g>
    </g>
    <g id="text_8">
     <!-- Exponent: $10^x$ -->
     <g transform="translate(340.835 199.226353) scale(0.14 -0.14)">
      <defs>
       <path id="DejaVuSans-45" d="M 628 4666 
L 3578 4666 
L 3578 4134 
L 1259 4134 
L 1259 2753 
L 3481 2753 
L 3481 2222 
L 1259 2222 
L 1259 531 
L 3634 531 
L 3634 0 
L 628 0 
L 628 4666 
z
" transform="scale(0.015625)"/>
       <path id="DejaVuSans-78" d="M 3513 3500 
L 2247 1797 
L 3578 0 
L 2900 0 
L 1881 1375 
L 863 0 
L 184 0 
L 1544 1831 
L 300 3500 
L 978 3500 
L 1906 2253 
L 2834 3500 
L 3513 3500 
z
" transform="scale(0.015625)"/>
       <path id="DejaVuSans-70" d="M 1159 525 
L 1159 -1331 
L 581 -1331 
L 581 3500 
L 1159 3500 
L 1159 2969 
Q 1341 3281 1617 3432 
Q 1894 3584 2278 3584 
Q 2916 3584 3314 3078 
Q 3713 2572 3713 1747 
Q 3713 922 3314 415 
Q 2916 -91 2278 -91 
Q 1894 -91 1617 61 
Q 1341 213 1159 525 
z
M 3116 1747 
Q 3116 2381 2855 2742 
Q 2594 3103 2138 3103 
Q 1681 3103 1420 2742 
Q 1159 2381 1159 1747 
Q 1159 1113 1420 752 
Q 1681 391 2138 391 
Q 2594 391 2855 752 
Q 3116 1113 3116 1747 
z
" transform="scale(0.015625)"/>
       <path id="DejaVuSans-6f" d="M 1959 3097 
Q 1497 3097 1228 2736 
Q 959 2375 959 1747 
Q 959 1119 1226 758 
Q 1494 397 1959 397 
Q 2419 397 2687 759 
Q 2956 1122 2956 1747 
Q 2956 2369 2687 2733 
Q 2419 3097 1959 3097 
z
M 1959 3584 
Q 2709 3584 3137 3096 
Q 3566 2609 3566 1747 
Q 3566 888 3137 398 
Q 2709 -91 1959 -91 
Q 1206 -91 779 398 
Q 353 888 353 1747 
Q 353 2609 779 3096 
Q 1206 3584 1959 3584 
z
" transform="scale(0.015625)"/>
       <path id="DejaVuSans-6e" d="M 3513 2113 
L 3513 0 
L 2938 0 
L 2938 2094 
Q 2938 2591 2744 2837 
Q 2550 3084 2163 3084 
Q 1697 3084 1428 2787 
Q 1159 2491 1159 1978 
L 1159 0 
L 581 0 
L 581 3500 
L 1159 3500 
L 1159 2956 
Q 1366 3272 1645 3428 
Q 1925 3584 2291 3584 
Q 2894 3584 3203 3211 
Q 3513 2838 3513 2113 
z
" transform="scale(0.015625)"/>
       <path id="DejaVuSans-65" d="M 3597 1894 
L 3597 1613 
L 953 1613 
Q 991 1019 1311 708 
Q 1631 397 2203 397 
Q 2534 397 2845 478 
Q 3156 559 3463 722 
L 3463 178 
Q 3153 47 2828 -22 
Q 2503 -91 2169 -91 
Q 1331 -91 842 396 
Q 353 884 353 1716 
Q 353 2575 817 3079 
Q 1281 3584 2069 3584 
Q 2775 3584 3186 3129 
Q 3597 2675 3597 1894 
z
M 3022 2063 
Q 3016 2534 2758 2815 
Q 2500 3097 2075 3097 
Q 1594 3097 1305 2825 
Q 1016 2553 972 2059 
L 3022 2063 
z
" transform="scale(0.015625)"/>
       <path id="DejaVuSans-74" d="M 1172 4494 
L 1172 3500 
L 2356 3500 
L 2356 3053 
L 1172 3053 
L 1172 1153 
Q 1172 725 1289 603 
Q 1406 481 1766 481 
L 2356 481 
L 2356 0 
L 1766 0 
Q 1100 0 847 248 
Q 594 497 594 1153 
L 594 3053 
L 172 3053 
L 172 3500 
L 594 3500 
L 594 4494 
L 1172 4494 
z
" transform="scale(0.015625)"/>
       <path id="DejaVuSans-3a" d="M 750 794 
L 1409 794 
L 1409 0 
L 750 0 
L 750 794 
z
M 750 3309 
L 1409 3309 
L 1409 2516 
L 750 2516 
L 750 3309 
z
" transform="scale(0.015625)"/>
       <path id="DejaVuSans-20" transform="scale(0.015625)"/>
       <path id="DejaVuSans-Oblique-78" d="M 3841 3500 
L 2234 1784 
L 3219 0 
L 2559 0 
L 1819 1388 
L 531 0 
L -166 0 
L 1556 1844 
L 641 3500 
L 1300 3500 
L 1972 2234 
L 3144 3500 
L 3841 3500 
z
" transform="scale(0.015625)"/>
      </defs>
      <use xlink:href="#DejaVuSans-45" transform="translate(0 0.4375)"/>
      <use xlink:href="#DejaVuSans-78" transform="translate(63.183594 0.4375)"/>
      <use xlink:href="#DejaVuSans-70" transform="translate(122.363281 0.4375)"/>
      <use xlink:href="#DejaVuSans-6f" transform="translate(185.839844 0.4375)"/>
      <use xlink:href="#DejaVuSans-6e" transform="translate(247.021484 0.4375)"/>
      <use xlink:href="#DejaVuSans-65" transform="translate(310.400391 0.4375)"/>
      <use xlink:href="#DejaVuSans-6e" transform="translate(371.923828 0.4375)"/>
      <use xlink:href="#DejaVuSans-74" transform="translate(435.302734 0.4375)"/>
      <use xlink:href="#DejaVuSans-3a" transform="translate(474.511719 0.4375)"/>
      <use xlink:href="#DejaVuSans-20" transform="translate(508.203125 0.4375)"/>
      <use xlink:href="#DejaVuSans-31" transform="translate(539.990234 0.4375)"/>
      <use xlink:href="#DejaVuSans-30" transform="translate(603.613281 0.4375)"/>
      <use xlink:href="#DejaVuSans-Oblique-78" transform="translate(668.193359 38.71875) scale(0.7)"/>
     </g>
    </g>
   </g>
   <g id="matplotlib.axis_2">
    <g id="ytick_1">
     <g id="line2d_15">
      <path d="M 72.29 145.92751 
L 709.2 145.92751 
" clip-path="url(#p28b3cd7a9e)" style="fill: none; stroke: #b0b0b0; stroke-width: 0.8; stroke-linecap: square"/>
     </g>
     <g id="line2d_16">
      <defs>
       <path id="mbbf3ad6b42" d="M 0 0 
L -3.5 0 
" style="stroke: #000000; stroke-width: 0.8"/>
      </defs>
      <g>
       <use xlink:href="#mbbf3ad6b42" x="72.29" y="145.92751" style="stroke: #000000; stroke-width: 0.8"/>
      </g>
     </g>
     <g id="text_9">
      <!-- 0.0 -->
      <g transform="translate(46.20625 150.486572) scale(0.12 -0.12)">
       <defs>
        <path id="DejaVuSans-2e" d="M 684 794 
L 1344 794 
L 1344 0 
L 684 0 
L 684 794 
z
" transform="scale(0.015625)"/>
       </defs>
       <use xlink:href="#DejaVuSans-30"/>
       <use xlink:href="#DejaVuSans-2e" x="63.623047"/>
       <use xlink:href="#DejaVuSans-30" x="95.410156"/>
      </g>
     </g>
    </g>
    <g id="ytick_2">
     <g id="line2d_17">
      <path d="M 72.29 118.902008 
L 709.2 118.902008 
" clip-path="url(#p28b3cd7a9e)" style="fill: none; stroke: #b0b0b0; stroke-width: 0.8; stroke-linecap: square"/>
     </g>
     <g id="line2d_18">
      <g>
       <use xlink:href="#mbbf3ad6b42" x="72.29" y="118.902008" style="stroke: #000000; stroke-width: 0.8"/>
      </g>
     </g>
     <g id="text_10">
      <!-- 20.0 -->
      <g transform="translate(38.57125 123.46107) scale(0.12 -0.12)">
       <use xlink:href="#DejaVuSans-32"/>
       <use xlink:href="#DejaVuSans-30" x="63.623047"/>
       <use xlink:href="#DejaVuSans-2e" x="127.246094"/>
       <use xlink:href="#DejaVuSans-30" x="159.033203"/>
      </g>
     </g>
    </g>
    <g id="ytick_3">
     <g id="line2d_19">
      <path d="M 72.29 91.876506 
L 709.2 91.876506 
" clip-path="url(#p28b3cd7a9e)" style="fill: none; stroke: #b0b0b0; stroke-width: 0.8; stroke-linecap: square"/>
     </g>
     <g id="line2d_20">
      <g>
       <use xlink:href="#mbbf3ad6b42" x="72.29" y="91.876506" style="stroke: #000000; stroke-width: 0.8"/>
      </g>
     </g>
     <g id="text_11">
      <!-- 40.0 -->
      <g transform="translate(38.57125 96.435568) scale(0.12 -0.12)">
       <defs>
        <path id="DejaVuSans-34" d="M 2419 4116 
L 825 1625 
L 2419 1625 
L 2419 4116 
z
M 2253 4666 
L 3047 4666 
L 3047 1625 
L 3713 1625 
L 3713 1100 
L 3047 1100 
L 3047 0 
L 2419 0 
L 2419 1100 
L 313 1100 
L 313 1709 
L 2253 4666 
z
" transform="scale(0.015625)"/>
       </defs>
       <use xlink:href="#DejaVuSans-34"/>
       <use xlink:href="#DejaVuSans-30" x="63.623047"/>
       <use xlink:href="#DejaVuSans-2e" x="127.246094"/>
       <use xlink:href="#DejaVuSans-30" x="159.033203"/>
      </g>
     </g>
    </g>
    <g id="ytick_4">
     <g id="line2d_21">
      <path d="M 72.29 64.851004 
L 709.2 64.851004 
" clip-path="url(#p28b3cd7a9e)" style="fill: none; stroke: #b0b0b0; stroke-width: 0.8; stroke-linecap: square"/>
     </g>
     <g id="line2d_22">
      <g>
       <use xlink:href="#mbbf3ad6b42" x="72.29" y="64.851004" style="stroke: #000000; stroke-width: 0.8"/>
      </g>
     </g>
     <g id="text_12">
      <!-- 60.0 -->
      <g transform="translate(38.57125 69.410066) scale(0.12 -0.12)">
       <defs>
        <path id="DejaVuSans-36" d="M 2113 2584 
Q 1688 2584 1439 2293 
Q 1191 2003 1191 1497 
Q 1191 994 1439 701 
Q 1688 409 2113 409 
Q 2538 409 2786 701 
Q 3034 994 3034 1497 
Q 3034 2003 2786 2293 
Q 2538 2584 2113 2584 
z
M 3366 4563 
L 3366 3988 
Q 3128 4100 2886 4159 
Q 2644 4219 2406 4219 
Q 1781 4219 1451 3797 
Q 1122 3375 1075 2522 
Q 1259 2794 1537 2939 
Q 1816 3084 2150 3084 
Q 2853 3084 3261 2657 
Q 3669 2231 3669 1497 
Q 3669 778 3244 343 
Q 2819 -91 2113 -91 
Q 1303 -91 875 529 
Q 447 1150 447 2328 
Q 447 3434 972 4092 
Q 1497 4750 2381 4750 
Q 2619 4750 2861 4703 
Q 3103 4656 3366 4563 
z
" transform="scale(0.015625)"/>
       </defs>
       <use xlink:href="#DejaVuSans-36"/>
       <use xlink:href="#DejaVuSans-30" x="63.623047"/>
       <use xlink:href="#DejaVuSans-2e" x="127.246094"/>
       <use xlink:href="#DejaVuSans-30" x="159.033203"/>
      </g>
     </g>
    </g>
    <g id="ytick_5">
     <g id="line2d_23">
      <path d="M 72.29 37.825502 
L 709.2 37.825502 
" clip-path="url(#p28b3cd7a9e)" style="fill: none; stroke: #b0b0b0; stroke-width: 0.8; stroke-linecap: square"/>
     </g>
     <g id="line2d_24">
      <g>
       <use xlink:href="#mbbf3ad6b42" x="72.29" y="37.825502" style="stroke: #000000; stroke-width: 0.8"/>
      </g>
     </g>
     <g id="text_13">
      <!-- 80.0 -->
      <g transform="translate(38.57125 42.384564) scale(0.12 -0.12)">
       <defs>
        <path id="DejaVuSans-38" d="M 2034 2216 
Q 1584 2216 1326 1975 
Q 1069 1734 1069 1313 
Q 1069 891 1326 650 
Q 1584 409 2034 409 
Q 2484 409 2743 651 
Q 3003 894 3003 1313 
Q 3003 1734 2745 1975 
Q 2488 2216 2034 2216 
z
M 1403 2484 
Q 997 2584 770 2862 
Q 544 3141 544 3541 
Q 544 4100 942 4425 
Q 1341 4750 2034 4750 
Q 2731 4750 3128 4425 
Q 3525 4100 3525 3541 
Q 3525 3141 3298 2862 
Q 3072 2584 2669 2484 
Q 3125 2378 3379 2068 
Q 3634 1759 3634 1313 
Q 3634 634 3220 271 
Q 2806 -91 2034 -91 
Q 1263 -91 848 271 
Q 434 634 434 1313 
Q 434 1759 690 2068 
Q 947 2378 1403 2484 
z
M 1172 3481 
Q 1172 3119 1398 2916 
Q 1625 2713 2034 2713 
Q 2441 2713 2670 2916 
Q 2900 3119 2900 3481 
Q 2900 3844 2670 4047 
Q 2441 4250 2034 4250 
Q 1625 4250 1398 4047 
Q 1172 3844 1172 3481 
z
" transform="scale(0.015625)"/>
       </defs>
       <use xlink:href="#DejaVuSans-38"/>
       <use xlink:href="#DejaVuSans-30" x="63.623047"/>
       <use xlink:href="#DejaVuSans-2e" x="127.246094"/>
       <use xlink:href="#DejaVuSans-30" x="159.033203"/>
      </g>
     </g>
    </g>
    <g id="ytick_6">
     <g id="line2d_25">
      <path d="M 72.29 10.8 
L 709.2 10.8 
" clip-path="url(#p28b3cd7a9e)" style="fill: none; stroke: #b0b0b0; stroke-width: 0.8; stroke-linecap: square"/>
     </g>
     <g id="line2d_26">
      <g>
       <use xlink:href="#mbbf3ad6b42" x="72.29" y="10.8" style="stroke: #000000; stroke-width: 0.8"/>
      </g>
     </g>
     <g id="text_14">
      <!-- 100.0 -->
      <g transform="translate(30.93625 15.359063) scale(0.12 -0.12)">
       <use xlink:href="#DejaVuSans-31"/>
       <use xlink:href="#DejaVuSans-30" x="63.623047"/>
       <use xlink:href="#DejaVuSans-30" x="127.246094"/>
       <use xlink:href="#DejaVuSans-2e" x="190.869141"/>
       <use xlink:href="#DejaVuSans-30" x="222.65625"/>
      </g>
     </g>
    </g>
    <g id="text_15">
     <!-- % -->
     <g transform="translate(24.024688 85.014849) rotate(-90) scale(0.14 -0.14)">
      <defs>
       <path id="DejaVuSans-25" d="M 4653 2053 
Q 4381 2053 4226 1822 
Q 4072 1591 4072 1178 
Q 4072 772 4226 539 
Q 4381 306 4653 306 
Q 4919 306 5073 539 
Q 5228 772 5228 1178 
Q 5228 1588 5073 1820 
Q 4919 2053 4653 2053 
z
M 4653 2450 
Q 5147 2450 5437 2106 
Q 5728 1763 5728 1178 
Q 5728 594 5436 251 
Q 5144 -91 4653 -91 
Q 4153 -91 3862 251 
Q 3572 594 3572 1178 
Q 3572 1766 3864 2108 
Q 4156 2450 4653 2450 
z
M 1428 4353 
Q 1159 4353 1004 4120 
Q 850 3888 850 3481 
Q 850 3069 1003 2837 
Q 1156 2606 1428 2606 
Q 1700 2606 1854 2837 
Q 2009 3069 2009 3481 
Q 2009 3884 1853 4118 
Q 1697 4353 1428 4353 
z
M 4250 4750 
L 4750 4750 
L 1831 -91 
L 1331 -91 
L 4250 4750 
z
M 1428 4750 
Q 1922 4750 2215 4408 
Q 2509 4066 2509 3481 
Q 2509 2891 2217 2550 
Q 1925 2209 1428 2209 
Q 931 2209 642 2551 
Q 353 2894 353 3481 
Q 353 4063 643 4406 
Q 934 4750 1428 4750 
z
" transform="scale(0.015625)"/>
      </defs>
      <use xlink:href="#DejaVuSans-25"/>
     </g>
    </g>
   </g>
   <g id="line2d_27">
    <path d="M 675.312259 145.92751 
L 675.312259 10.8 
" clip-path="url(#p28b3cd7a9e)" style="fill: none; stroke-dasharray: 5.55,2.4; stroke-dashoffset: 0; stroke: #ff0000; stroke-width: 1.5"/>
   </g>
   <g id="line2d_28">
    <path d="M 107.973118 145.92751 
L 107.973118 10.8 
" clip-path="url(#p28b3cd7a9e)" style="fill: none; stroke-dasharray: 5.55,2.4; stroke-dashoffset: 0; stroke: #ff0000; stroke-width: 1.5"/>
   </g>
   <g id="line2d_29">
    <path d="M 432.93636 145.92751 
L 432.93636 10.8 
" clip-path="url(#p28b3cd7a9e)" style="fill: none; stroke-dasharray: 5.55,2.4; stroke-dashoffset: 0; stroke: #808080; stroke-width: 1.5"/>
   </g>
   <g id="line2d_30">
    <path d="M 358.428214 145.92751 
L 358.428214 10.8 
" clip-path="url(#p28b3cd7a9e)" style="fill: none; stroke-dasharray: 5.55,2.4; stroke-dashoffset: 0; stroke: #808080; stroke-width: 1.5"/>
   </g>
   <g id="patch_132">
    <path d="M 72.29 145.92751 
L 72.29 10.8 
" style="fill: none; stroke: #000000; stroke-width: 0.8; stroke-linejoin: miter; stroke-linecap: square"/>
   </g>
   <g id="patch_133">
    <path d="M 709.2 145.92751 
L 709.2 10.8 
" style="fill: none; stroke: #000000; stroke-width: 0.8; stroke-linejoin: miter; stroke-linecap: square"/>
   </g>
   <g id="patch_134">
    <path d="M 72.29 145.92751 
L 709.2 145.92751 
" style="fill: none; stroke: #000000; stroke-width: 0.8; stroke-linejoin: miter; stroke-linecap: square"/>
   </g>
   <g id="patch_135">
    <path d="M 72.29 10.8 
L 709.2 10.8 
" style="fill: none; stroke: #000000; stroke-width: 0.8; stroke-linejoin: miter; stroke-linecap: square"/>
   </g>
  </g>
 </g>
 <defs>
  <clipPath id="p28b3cd7a9e">
   <rect x="72.29" y="10.8" width="636.91" height="135.12751"/>
  </clipPath>
 </defs>
</svg>
